<!DOCTYPE svg PUBLIC "-//W3C//DTD SVG 1.1//EN" "http://www.w3.org/Graphics/SVG/1.1/DTD/svg11.dtd">
<!-- Uploaded to: SVG Repo, www.svgrepo.com, Transformed by: SVG Repo Mixer Tools -->
<svg width="81px" height="81px" viewBox="-1.44 -1.44 26.88 26.88" fill="none" xmlns="http://www.w3.org/2000/svg" stroke="#691ea6" transform="matrix(-1, 0, 0, 1, 0, 0)rotate(0)">
<g id="SVGRepo_bgCarrier" stroke-width="0">
<path transform="translate(-1.44, -1.44), scale(0.8399999999999999)" d="M16,31.574487284890242C20.08954739895304,31.64607442544839,24.119948136198598,29.888525923374377,26.790604396946875,26.790604396946875C29.303867765882018,23.87525628321231,29.74227054669274,19.836144877354048,29.4264543567385,16C29.139306082746092,12.512077545876792,27.706613196788844,9.23986724955995,25.149043933010965,6.850956066989037C22.67807327759347,4.542932775446971,19.3765422958824,3.281101673672767,16,3.458948850631714C12.784497704790043,3.6283138268695314,10.278592980095917,5.752164833142655,7.766517880229882,7.76651788022988C4.772629497570097,10.167221659576047,0.8068575495977862,12.188536944928577,0.36020817501204405,15.999999999999996C-0.10981477114888916,20.010920413780426,2.7191491372844596,23.569750661627026,5.580673439103254,26.419326560896742C8.435050834797329,29.261785396217572,11.97233668828964,31.503983419428234,16,31.574487284890242" fill="#c9a25d" strokewidth="0"/>
</g>
<g id="SVGRepo_tracerCarrier" stroke-linecap="round" stroke-linejoin="round"/>
<g id="SVGRepo_iconCarrier"> <path d="M22 22L2 22" stroke="#691ea6" stroke-width="1.5" stroke-linecap="round"/> <path d="M2 11L6.06296 7.74968M22 11L13.8741 4.49931C12.7784 3.62279 11.2216 3.62279 10.1259 4.49931L9.34398 5.12486" stroke="#691ea6" stroke-width="1.5" stroke-linecap="round"/> <path d="M15.5 5.5V3.5C15.5 3.22386 15.7239 3 16 3H18.5C18.7761 3 19 3.22386 19 3.5V8.5" stroke="#691ea6" stroke-width="1.5" stroke-linecap="round"/> <path d="M4 22V9.5" stroke="#691ea6" stroke-width="1.5" stroke-linecap="round"/> <path d="M20 9.5V13.5M20 22V17.5" stroke="#691ea6" stroke-width="1.5" stroke-linecap="round"/> <path d="M15 22V17C15 15.5858 15 14.8787 14.5607 14.4393C14.1213 14 13.4142 14 12 14C10.5858 14 9.87868 14 9.43934 14.4393M9 22V17" stroke="#691ea6" stroke-width="1.5" stroke-linecap="round" stroke-linejoin="round"/> <path d="M14 9.5C14 10.6046 13.1046 11.5 12 11.5C10.8954 11.5 10 10.6046 10 9.5C10 8.39543 10.8954 7.5 12 7.5C13.1046 7.5 14 8.39543 14 9.5Z" stroke="#691ea6" stroke-width="1.5"/> </g>
</svg>